<svg width="32" height="32" viewBox="0 0 32 32" fill="none" xmlns="http://www.w3.org/2000/svg">
<rect width="32" height="32" rx="16" fill="#0696A7"/>
<path d="M13.3381 19.9905C16.4946 19.8151 19 17.2003 19 14C19 10.6863 16.3137 8 13 8C9.68629 8 7 10.6863 7 14C7 15.1807 7.34094 16.2817 7.92989 17.21L7.50586 18.482L7.50518 18.4839C7.34278 18.9711 7.26154 19.2149 7.31938 19.3771C7.36979 19.5184 7.48169 19.6299 7.62305 19.6803C7.78472 19.7379 8.02675 19.6573 8.51069 19.4959L8.51758 19.4939L9.79004 19.0698C10.7183 19.6588 11.8194 19.9998 13.0001 19.9998C13.1135 19.9998 13.2262 19.9967 13.3381 19.9905ZM13.3381 19.9905C13.3382 19.9907 13.3381 19.9902 13.3381 19.9905ZM13.3381 19.9905C14.1591 22.3259 16.3841 24.0002 19.0001 24.0002C20.1808 24.0002 21.2817 23.6588 22.2099 23.0698L23.482 23.4939L23.4845 23.4944C23.9717 23.6567 24.2158 23.7381 24.378 23.6803C24.5194 23.6299 24.6299 23.5184 24.6803 23.3771C24.7382 23.2146 24.6572 22.9706 24.4943 22.4821L24.0703 21.21L24.2123 20.9746C24.7138 20.0979 24.9995 19.0823 24.9995 18C24.9995 14.6863 22.3137 12 19 12L18.7754 12.0041L18.6621 12.0097" stroke="white" stroke-width="2" stroke-linecap="round" stroke-linejoin="round"/>
</svg>
