<svg width="130" height="57" viewBox="0 0 130 57" fill="none" xmlns="http://www.w3.org/2000/svg">
<path d="M72.2 23.1858C73.4674 24.1327 74.6 26.5168 74.6 27.9857C74.6 28.4434 74.2661 28.8144 73.8543 28.8144H73.4M68.6 19.3046C69.4199 18.8303 69.9715 17.9439 69.9715 16.9286C69.9715 15.9134 69.4199 15.027 68.6 14.5527M56.1458 28.8144H69.2828C69.6947 28.8144 70.0286 28.4434 70.0286 27.9857C70.0286 25.1091 67.6253 22.7772 62.7143 22.7772C57.8033 22.7772 55.4 25.1091 55.4 27.9857C55.4 28.4434 55.7339 28.8144 56.1458 28.8144ZM65.4572 16.9286C65.4572 18.4435 64.2291 19.6715 62.7143 19.6715C61.1995 19.6715 59.9715 18.4435 59.9715 16.9286C59.9715 15.4138 61.1995 14.1858 62.7143 14.1858C64.2291 14.1858 65.4572 15.4138 65.4572 16.9286Z" stroke="black" stroke-width="2" stroke-linecap="round"/>
<path d="M39.9805 47.2227H41.4453C41.3984 47.7812 41.2422 48.2793 40.9766 48.7168C40.7109 49.1504 40.3379 49.4922 39.8574 49.7422C39.377 49.9922 38.793 50.1172 38.1055 50.1172C37.5781 50.1172 37.1035 50.0234 36.6816 49.8359C36.2598 49.6445 35.8984 49.375 35.5977 49.0273C35.2969 48.6758 35.0664 48.252 34.9062 47.7559C34.75 47.2598 34.6719 46.7051 34.6719 46.0918V45.3828C34.6719 44.7695 34.752 44.2148 34.9121 43.7188C35.0762 43.2227 35.3105 42.7988 35.6152 42.4473C35.9199 42.0918 36.2852 41.8203 36.7109 41.6328C37.1406 41.4453 37.623 41.3516 38.1582 41.3516C38.8379 41.3516 39.4121 41.4766 39.8809 41.7266C40.3496 41.9766 40.7129 42.3223 40.9707 42.7637C41.2324 43.2051 41.3926 43.7109 41.4512 44.2812H39.9863C39.9473 43.9141 39.8613 43.5996 39.7285 43.3379C39.5996 43.0762 39.4082 42.877 39.1543 42.7402C38.9004 42.5996 38.5684 42.5293 38.1582 42.5293C37.8223 42.5293 37.5293 42.5918 37.2793 42.7168C37.0293 42.8418 36.8203 43.0254 36.6523 43.2676C36.4844 43.5098 36.3574 43.8086 36.2715 44.1641C36.1895 44.5156 36.1484 44.918 36.1484 45.3711V46.0918C36.1484 46.5215 36.1855 46.9121 36.2598 47.2637C36.3379 47.6113 36.4551 47.9102 36.6113 48.1602C36.7715 48.4102 36.9746 48.6035 37.2207 48.7402C37.4668 48.877 37.7617 48.9453 38.1055 48.9453C38.5234 48.9453 38.8613 48.8789 39.1191 48.7461C39.3809 48.6133 39.5781 48.4199 39.7109 48.166C39.8477 47.9082 39.9375 47.5938 39.9805 47.2227ZM42.3711 46.9004V46.7656C42.3711 46.3086 42.4375 45.8848 42.5703 45.4941C42.7031 45.0996 42.8945 44.7578 43.1445 44.4688C43.3984 44.1758 43.707 43.9492 44.0703 43.7891C44.4375 43.625 44.8516 43.543 45.3125 43.543C45.7773 43.543 46.1914 43.625 46.5547 43.7891C46.9219 43.9492 47.2324 44.1758 47.4863 44.4688C47.7402 44.7578 47.9336 45.0996 48.0664 45.4941C48.1992 45.8848 48.2656 46.3086 48.2656 46.7656V46.9004C48.2656 47.3574 48.1992 47.7812 48.0664 48.1719C47.9336 48.5625 47.7402 48.9043 47.4863 49.1973C47.2324 49.4863 46.9238 49.7129 46.5605 49.877C46.1973 50.0371 45.7852 50.1172 45.3242 50.1172C44.8594 50.1172 44.4434 50.0371 44.0762 49.877C43.7129 49.7129 43.4043 49.4863 43.1504 49.1973C42.8965 48.9043 42.7031 48.5625 42.5703 48.1719C42.4375 47.7812 42.3711 47.3574 42.3711 46.9004ZM43.7832 46.7656V46.9004C43.7832 47.1855 43.8125 47.4551 43.8711 47.709C43.9297 47.9629 44.0215 48.1855 44.1465 48.377C44.2715 48.5684 44.4316 48.7188 44.627 48.8281C44.8223 48.9375 45.0547 48.9922 45.3242 48.9922C45.5859 48.9922 45.8125 48.9375 46.0039 48.8281C46.1992 48.7188 46.3594 48.5684 46.4844 48.377C46.6094 48.1855 46.7012 47.9629 46.7598 47.709C46.8223 47.4551 46.8535 47.1855 46.8535 46.9004V46.7656C46.8535 46.4844 46.8223 46.2188 46.7598 45.9688C46.7012 45.7148 46.6074 45.4902 46.4785 45.2949C46.3535 45.0996 46.1934 44.9473 45.998 44.8379C45.8066 44.7246 45.5781 44.668 45.3125 44.668C45.0469 44.668 44.8164 44.7246 44.6211 44.8379C44.4297 44.9473 44.2715 45.0996 44.1465 45.2949C44.0215 45.4902 43.9297 45.7148 43.8711 45.9688C43.8125 46.2188 43.7832 46.4844 43.7832 46.7656ZM50.8613 44.9492V50H49.4492V43.6602H50.7793L50.8613 44.9492ZM50.6328 46.5957L50.1523 46.5898C50.1523 46.1523 50.207 45.748 50.3164 45.377C50.4258 45.0059 50.5859 44.6836 50.7969 44.4102C51.0078 44.1328 51.2695 43.9199 51.582 43.7715C51.8984 43.6191 52.2637 43.543 52.6777 43.543C52.9668 43.543 53.2305 43.5859 53.4688 43.6719C53.7109 43.7539 53.9199 43.8848 54.0957 44.0645C54.2754 44.2441 54.4121 44.4746 54.5059 44.7559C54.6035 45.0371 54.6523 45.377 54.6523 45.7754V50H53.2402V45.8984C53.2402 45.5898 53.1934 45.3477 53.0996 45.1719C53.0098 44.9961 52.8789 44.8711 52.707 44.7969C52.5391 44.7188 52.3379 44.6797 52.1035 44.6797C51.8379 44.6797 51.6113 44.7305 51.4238 44.832C51.2402 44.9336 51.0898 45.0723 50.9727 45.248C50.8555 45.4238 50.7695 45.627 50.7148 45.8574C50.6602 46.0879 50.6328 46.334 50.6328 46.5957ZM54.5645 46.2207L53.9023 46.3672C53.9023 45.9844 53.9551 45.623 54.0605 45.2832C54.1699 44.9395 54.3281 44.6387 54.5352 44.3809C54.7461 44.1191 55.0059 43.9141 55.3145 43.7656C55.623 43.6172 55.9766 43.543 56.375 43.543C56.6992 43.543 56.9883 43.5879 57.2422 43.6777C57.5 43.7637 57.7188 43.9004 57.8984 44.0879C58.0781 44.2754 58.2148 44.5195 58.3086 44.8203C58.4023 45.1172 58.4492 45.4766 58.4492 45.8984V50H57.0312V45.8926C57.0312 45.5723 56.9844 45.3242 56.8906 45.1484C56.8008 44.9727 56.6719 44.8516 56.5039 44.7852C56.3359 44.7148 56.1348 44.6797 55.9004 44.6797C55.6816 44.6797 55.4883 44.7207 55.3203 44.8027C55.1562 44.8809 55.0176 44.9922 54.9043 45.1367C54.791 45.2773 54.7051 45.4395 54.6465 45.623C54.5918 45.8066 54.5645 46.0059 54.5645 46.2207ZM61.3145 44.9492V50H59.9023V43.6602H61.2324L61.3145 44.9492ZM61.0859 46.5957L60.6055 46.5898C60.6055 46.1523 60.6602 45.748 60.7695 45.377C60.8789 45.0059 61.0391 44.6836 61.25 44.4102C61.4609 44.1328 61.7227 43.9199 62.0352 43.7715C62.3516 43.6191 62.7168 43.543 63.1309 43.543C63.4199 43.543 63.6836 43.5859 63.9219 43.6719C64.1641 43.7539 64.373 43.8848 64.5488 44.0645C64.7285 44.2441 64.8652 44.4746 64.959 44.7559C65.0566 45.0371 65.1055 45.377 65.1055 45.7754V50H63.6934V45.8984C63.6934 45.5898 63.6465 45.3477 63.5527 45.1719C63.4629 44.9961 63.332 44.8711 63.1602 44.7969C62.9922 44.7188 62.791 44.6797 62.5566 44.6797C62.291 44.6797 62.0645 44.7305 61.877 44.832C61.6934 44.9336 61.543 45.0723 61.4258 45.248C61.3086 45.4238 61.2227 45.627 61.168 45.8574C61.1133 46.0879 61.0859 46.334 61.0859 46.5957ZM65.0176 46.2207L64.3555 46.3672C64.3555 45.9844 64.4082 45.623 64.5137 45.2832C64.623 44.9395 64.7812 44.6387 64.9883 44.3809C65.1992 44.1191 65.459 43.9141 65.7676 43.7656C66.0762 43.6172 66.4297 43.543 66.8281 43.543C67.1523 43.543 67.4414 43.5879 67.6953 43.6777C67.9531 43.7637 68.1719 43.9004 68.3516 44.0879C68.5312 44.2754 68.668 44.5195 68.7617 44.8203C68.8555 45.1172 68.9023 45.4766 68.9023 45.8984V50H67.4844V45.8926C67.4844 45.5723 67.4375 45.3242 67.3438 45.1484C67.2539 44.9727 67.125 44.8516 66.957 44.7852C66.7891 44.7148 66.5879 44.6797 66.3535 44.6797C66.1348 44.6797 65.9414 44.7207 65.7734 44.8027C65.6094 44.8809 65.4707 44.9922 65.3574 45.1367C65.2441 45.2773 65.1582 45.4395 65.0996 45.623C65.0449 45.8066 65.0176 46.0059 65.0176 46.2207ZM74.1699 48.5059V43.6602H75.5879V50H74.252L74.1699 48.5059ZM74.3691 47.1875L74.8438 47.1758C74.8438 47.6016 74.7969 47.9941 74.7031 48.3535C74.6094 48.709 74.4648 49.0195 74.2695 49.2852C74.0742 49.5469 73.8242 49.752 73.5195 49.9004C73.2148 50.0449 72.8496 50.1172 72.4238 50.1172C72.1152 50.1172 71.832 50.0723 71.5742 49.9824C71.3164 49.8926 71.0938 49.7539 70.9062 49.5664C70.7227 49.3789 70.5801 49.1348 70.4785 48.834C70.377 48.5332 70.3262 48.1738 70.3262 47.7559V43.6602H71.7383V47.7676C71.7383 47.998 71.7656 48.1914 71.8203 48.3477C71.875 48.5 71.9492 48.623 72.043 48.7168C72.1367 48.8105 72.2461 48.877 72.3711 48.916C72.4961 48.9551 72.6289 48.9746 72.7695 48.9746C73.1719 48.9746 73.4883 48.8965 73.7188 48.7402C73.9531 48.5801 74.1191 48.3652 74.2168 48.0957C74.3184 47.8262 74.3691 47.5234 74.3691 47.1875ZM78.4355 45.0137V50H77.0234V43.6602H78.3535L78.4355 45.0137ZM78.1836 46.5957L77.7266 46.5898C77.7305 46.1406 77.793 45.7285 77.9141 45.3535C78.0391 44.9785 78.2109 44.6562 78.4297 44.3867C78.6523 44.1172 78.918 43.9102 79.2266 43.7656C79.5352 43.6172 79.8789 43.543 80.2578 43.543C80.5625 43.543 80.8379 43.5859 81.084 43.6719C81.334 43.7539 81.5469 43.8887 81.7227 44.0762C81.9023 44.2637 82.0391 44.5078 82.1328 44.8086C82.2266 45.1055 82.2734 45.4707 82.2734 45.9043V50H80.8555V45.8984C80.8555 45.5938 80.8105 45.3535 80.7207 45.1777C80.6348 44.998 80.5078 44.8711 80.3398 44.7969C80.1758 44.7188 79.9707 44.6797 79.7246 44.6797C79.4824 44.6797 79.2656 44.7305 79.0742 44.832C78.8828 44.9336 78.7207 45.0723 78.5879 45.248C78.459 45.4238 78.3594 45.627 78.2891 45.8574C78.2188 46.0879 78.1836 46.334 78.1836 46.5957ZM85.2266 43.6602V50H83.8086V43.6602H85.2266ZM83.7148 41.9961C83.7148 41.7812 83.7852 41.6035 83.9258 41.4629C84.0703 41.3184 84.2695 41.2461 84.5234 41.2461C84.7734 41.2461 84.9707 41.3184 85.1152 41.4629C85.2598 41.6035 85.332 41.7812 85.332 41.9961C85.332 42.207 85.2598 42.3828 85.1152 42.5234C84.9707 42.6641 84.7734 42.7344 84.5234 42.7344C84.2695 42.7344 84.0703 42.6641 83.9258 42.5234C83.7852 42.3828 83.7148 42.207 83.7148 41.9961ZM89.6797 43.6602V44.6914H86.1055V43.6602H89.6797ZM87.1367 42.1074H88.5488V48.248C88.5488 48.4434 88.5762 48.5938 88.6309 48.6992C88.6895 48.8008 88.7695 48.8691 88.8711 48.9043C88.9727 48.9395 89.0918 48.957 89.2285 48.957C89.3262 48.957 89.4199 48.9512 89.5098 48.9395C89.5996 48.9277 89.6719 48.916 89.7266 48.9043L89.7324 49.9824C89.6152 50.0176 89.4785 50.0488 89.3223 50.0762C89.1699 50.1035 88.9941 50.1172 88.7949 50.1172C88.4707 50.1172 88.1836 50.0605 87.9336 49.9473C87.6836 49.8301 87.4883 49.6406 87.3477 49.3789C87.207 49.1172 87.1367 48.7695 87.1367 48.3359V42.1074ZM92.6094 49.3086L94.332 43.6602H95.8438L93.3008 50.9668C93.2422 51.123 93.166 51.293 93.0723 51.4766C92.9785 51.6602 92.8555 51.834 92.7031 51.998C92.5547 52.166 92.3691 52.3008 92.1465 52.4023C91.9238 52.5078 91.6543 52.5605 91.3379 52.5605C91.2129 52.5605 91.0918 52.5488 90.9746 52.5254C90.8613 52.5059 90.7539 52.4844 90.6523 52.4609L90.6465 51.3828C90.6855 51.3867 90.7324 51.3906 90.7871 51.3945C90.8457 51.3984 90.8926 51.4004 90.9277 51.4004C91.1621 51.4004 91.3574 51.3711 91.5137 51.3125C91.6699 51.2578 91.7969 51.168 91.8945 51.043C91.9961 50.918 92.082 50.75 92.1523 50.5391L92.6094 49.3086ZM91.6367 43.6602L93.1426 48.4062L93.3945 49.8945L92.416 50.1465L90.1133 43.6602H91.6367Z" fill="black"/>
</svg>
