<svg width="22" height="17" viewBox="0 0 22 17" fill="none" xmlns="http://www.w3.org/2000/svg">
<path d="M18.2 10C19.4674 10.9469 20.6 13.331 20.6 14.7999C20.6 15.2576 20.2661 15.6286 19.8543 15.6286H19.4M14.6 6.11877C15.4199 5.64452 15.9715 4.7581 15.9715 3.74286C15.9715 2.72761 15.4199 1.8412 14.6 1.36695M2.14579 15.6286H15.2828C15.6947 15.6286 16.0286 15.2576 16.0286 14.7999C16.0286 11.9233 13.6253 9.59138 8.71431 9.59138C3.80329 9.59138 1.40002 11.9233 1.40002 14.7999C1.40002 15.2576 1.73392 15.6286 2.14579 15.6286ZM11.4572 3.74286C11.4572 5.2577 10.2291 6.48571 8.71431 6.48571C7.19947 6.48571 5.97145 5.2577 5.97145 3.74286C5.97145 2.22802 7.19947 1 8.71431 1C10.2291 1 11.4572 2.22802 11.4572 3.74286Z" stroke="black" stroke-width="2" stroke-linecap="round"/>
</svg>
