<svg width="32" height="32" viewBox="0 0 32 32" fill="none" xmlns="http://www.w3.org/2000/svg">
<rect width="32" height="32" rx="16" fill="black" fill-opacity="0.05"/>
<path d="M20.6001 10.7C20.6001 11.6389 21.3612 12.4 22.3 12.4C23.2389 12.4 24 11.6389 24 10.7C24 9.76112 23.2389 9 22.3 9C21.3612 9 20.6001 9.76112 20.6001 10.7ZM20.6001 10.7H10.7187M20.6001 24.3C20.6001 25.2389 21.3612 26 22.3 26C23.2389 26 24 25.2389 24 24.3C24 23.3611 23.2389 22.6 22.3 22.6C21.3612 22.6 20.6001 23.3611 20.6001 24.3ZM20.6001 24.3H15.7127C15.2433 24.3 14.8627 23.9194 14.8627 23.45V11.55M20.2813 17.5H14.969M24 17.5C24 18.4389 23.2389 19.2 22.3 19.2C21.3612 19.2 20.6001 18.4389 20.6001 17.5C20.6001 16.5611 21.3612 15.8 22.3 15.8C23.2389 15.8 24 16.5611 24 17.5ZM10.3999 10.7C10.3999 11.6389 9.63882 12.4 8.69996 12.4C7.7611 12.4 7 11.6389 7 10.7C7 9.76112 7.7611 9 8.69996 9C9.63882 9 10.3999 9.76112 10.3999 10.7Z" stroke="#0696A7" stroke-width="2" stroke-linecap="round"/>
</svg>
