<svg width="98" height="57" viewBox="0 0 98 57" fill="none" xmlns="http://www.w3.org/2000/svg">
<path d="M39.75 18.9161C39.75 18.5467 39.938 18.2001 40.2546 17.986L48.0546 12.7112C48.4709 12.4296 49.0291 12.4296 49.4454 12.7112L57.2454 17.986C57.562 18.2001 57.75 18.5467 57.75 18.9161V28.7882C57.75 29.7336 56.9441 30.5 55.95 30.5H41.55C40.5559 30.5 39.75 29.7336 39.75 28.7882V18.9161Z" stroke="#0696A7" stroke-width="2"/>
<path d="M51 22.625C51 23.8676 49.9926 24.875 48.75 24.875C47.5074 24.875 46.5 23.8676 46.5 22.625C46.5 21.3824 47.5074 20.375 48.75 20.375C49.9926 20.375 51 21.3824 51 22.625Z" stroke="#0696A7" stroke-width="2"/>
<path d="M39.1465 45.0312V46.1973H34.6172V45.0312H39.1465ZM34.9805 41.4688V50H33.5098V41.4688H34.9805ZM40.2773 41.4688V50H38.8125V41.4688H40.2773ZM41.6191 46.9004V46.7656C41.6191 46.3086 41.6855 45.8848 41.8184 45.4941C41.9512 45.0996 42.1426 44.7578 42.3926 44.4688C42.6465 44.1758 42.9551 43.9492 43.3184 43.7891C43.6855 43.625 44.0996 43.543 44.5605 43.543C45.0254 43.543 45.4395 43.625 45.8027 43.7891C46.1699 43.9492 46.4805 44.1758 46.7344 44.4688C46.9883 44.7578 47.1816 45.0996 47.3145 45.4941C47.4473 45.8848 47.5137 46.3086 47.5137 46.7656V46.9004C47.5137 47.3574 47.4473 47.7812 47.3145 48.1719C47.1816 48.5625 46.9883 48.9043 46.7344 49.1973C46.4805 49.4863 46.1719 49.7129 45.8086 49.877C45.4453 50.0371 45.0332 50.1172 44.5723 50.1172C44.1074 50.1172 43.6914 50.0371 43.3242 49.877C42.9609 49.7129 42.6523 49.4863 42.3984 49.1973C42.1445 48.9043 41.9512 48.5625 41.8184 48.1719C41.6855 47.7812 41.6191 47.3574 41.6191 46.9004ZM43.0312 46.7656V46.9004C43.0312 47.1855 43.0605 47.4551 43.1191 47.709C43.1777 47.9629 43.2695 48.1855 43.3945 48.377C43.5195 48.5684 43.6797 48.7188 43.875 48.8281C44.0703 48.9375 44.3027 48.9922 44.5723 48.9922C44.834 48.9922 45.0605 48.9375 45.252 48.8281C45.4473 48.7188 45.6074 48.5684 45.7324 48.377C45.8574 48.1855 45.9492 47.9629 46.0078 47.709C46.0703 47.4551 46.1016 47.1855 46.1016 46.9004V46.7656C46.1016 46.4844 46.0703 46.2188 46.0078 45.9688C45.9492 45.7148 45.8555 45.4902 45.7266 45.2949C45.6016 45.0996 45.4414 44.9473 45.2461 44.8379C45.0547 44.7246 44.8262 44.668 44.5605 44.668C44.2949 44.668 44.0645 44.7246 43.8691 44.8379C43.6777 44.9473 43.5195 45.0996 43.3945 45.2949C43.2695 45.4902 43.1777 45.7148 43.1191 45.9688C43.0605 46.2188 43.0312 46.4844 43.0312 46.7656ZM50.1094 44.9492V50H48.6973V43.6602H50.0273L50.1094 44.9492ZM49.8809 46.5957L49.4004 46.5898C49.4004 46.1523 49.4551 45.748 49.5645 45.377C49.6738 45.0059 49.834 44.6836 50.0449 44.4102C50.2559 44.1328 50.5176 43.9199 50.8301 43.7715C51.1465 43.6191 51.5117 43.543 51.9258 43.543C52.2148 43.543 52.4785 43.5859 52.7168 43.6719C52.959 43.7539 53.168 43.8848 53.3438 44.0645C53.5234 44.2441 53.6602 44.4746 53.7539 44.7559C53.8516 45.0371 53.9004 45.377 53.9004 45.7754V50H52.4883V45.8984C52.4883 45.5898 52.4414 45.3477 52.3477 45.1719C52.2578 44.9961 52.127 44.8711 51.9551 44.7969C51.7871 44.7188 51.5859 44.6797 51.3516 44.6797C51.0859 44.6797 50.8594 44.7305 50.6719 44.832C50.4883 44.9336 50.3379 45.0723 50.2207 45.248C50.1035 45.4238 50.0176 45.627 49.9629 45.8574C49.9082 46.0879 49.8809 46.334 49.8809 46.5957ZM53.8125 46.2207L53.1504 46.3672C53.1504 45.9844 53.2031 45.623 53.3086 45.2832C53.418 44.9395 53.5762 44.6387 53.7832 44.3809C53.9941 44.1191 54.2539 43.9141 54.5625 43.7656C54.8711 43.6172 55.2246 43.543 55.623 43.543C55.9473 43.543 56.2363 43.5879 56.4902 43.6777C56.748 43.7637 56.9668 43.9004 57.1465 44.0879C57.3262 44.2754 57.4629 44.5195 57.5566 44.8203C57.6504 45.1172 57.6973 45.4766 57.6973 45.8984V50H56.2793V45.8926C56.2793 45.5723 56.2324 45.3242 56.1387 45.1484C56.0488 44.9727 55.9199 44.8516 55.752 44.7852C55.584 44.7148 55.3828 44.6797 55.1484 44.6797C54.9297 44.6797 54.7363 44.7207 54.5684 44.8027C54.4043 44.8809 54.2656 44.9922 54.1523 45.1367C54.0391 45.2773 53.9531 45.4395 53.8945 45.623C53.8398 45.8066 53.8125 46.0059 53.8125 46.2207ZM61.9453 50.1172C61.4766 50.1172 61.0527 50.041 60.6738 49.8887C60.2988 49.7324 59.9785 49.5156 59.7129 49.2383C59.4512 48.9609 59.25 48.6348 59.1094 48.2598C58.9688 47.8848 58.8984 47.4805 58.8984 47.0469V46.8125C58.8984 46.3164 58.9707 45.8672 59.1152 45.4648C59.2598 45.0625 59.4609 44.7188 59.7188 44.4336C59.9766 44.1445 60.2812 43.9238 60.6328 43.7715C60.9844 43.6191 61.3652 43.543 61.7754 43.543C62.2285 43.543 62.625 43.6191 62.9648 43.7715C63.3047 43.9238 63.5859 44.1387 63.8086 44.416C64.0352 44.6895 64.2031 45.0156 64.3125 45.3945C64.4258 45.7734 64.4824 46.1914 64.4824 46.6484V47.252H59.584V46.2383H63.0879V46.127C63.0801 45.873 63.0293 45.6348 62.9355 45.4121C62.8457 45.1895 62.707 45.0098 62.5195 44.873C62.332 44.7363 62.082 44.668 61.7695 44.668C61.5352 44.668 61.3262 44.7188 61.1426 44.8203C60.9629 44.918 60.8125 45.0605 60.6914 45.248C60.5703 45.4355 60.4766 45.6621 60.4102 45.9277C60.3477 46.1895 60.3164 46.4844 60.3164 46.8125V47.0469C60.3164 47.3242 60.3535 47.582 60.4277 47.8203C60.5059 48.0547 60.6191 48.2598 60.7676 48.4355C60.916 48.6113 61.0957 48.75 61.3066 48.8516C61.5176 48.9492 61.7578 48.998 62.0273 48.998C62.3672 48.998 62.6699 48.9297 62.9355 48.793C63.2012 48.6562 63.4316 48.4629 63.627 48.2129L64.3711 48.9336C64.2344 49.1328 64.0566 49.3242 63.8379 49.5078C63.6191 49.6875 63.3516 49.834 63.0352 49.9473C62.7227 50.0605 62.3594 50.1172 61.9453 50.1172Z" fill="#0696A7"/>
</svg>
