<svg width="16" height="16" viewBox="0 0 16 16" fill="none" xmlns="http://www.w3.org/2000/svg">
<path d="M1 5.99026C1 5.70295 1.14623 5.43341 1.39244 5.26691L7.45911 1.16424C7.78294 0.945251 8.21706 0.945252 8.54089 1.16425L14.6076 5.26691C14.8538 5.43341 15 5.70295 15 5.99026V13.6686C15 14.4039 14.3732 15 13.6 15H2.4C1.6268 15 1 14.4039 1 13.6686V5.99026Z" stroke="#0696A7" stroke-width="2"/>
<path d="M9.75 8.875C9.75 9.8415 8.9665 10.625 8 10.625C7.0335 10.625 6.25 9.8415 6.25 8.875C6.25 7.9085 7.0335 7.125 8 7.125C8.9665 7.125 9.75 7.9085 9.75 8.875Z" stroke="#0696A7" stroke-width="2"/>
</svg>
