<svg width="20" height="20" viewBox="0 0 20 20" fill="none" xmlns="http://www.w3.org/2000/svg">
<path d="M5.38217 8.19423L3.14872 10.4277C2.31458 11.2618 1.8349 12.3968 1.84367 13.5896C1.85243 14.7824 2.32162 15.9243 3.19533 16.771C4.04202 17.6448 5.18415 18.1139 6.37677 18.1227C7.59659 18.1317 8.70469 17.679 9.53888 16.8448L11.7723 14.6114M14.6251 11.8131L16.8586 9.57969C17.6927 8.74556 18.1724 7.61059 18.1637 6.41778C18.1549 5.22497 17.6857 4.08308 16.812 3.23635C15.9655 2.38986 14.8236 1.92065 13.6308 1.91189C12.4379 1.90312 11.3028 2.35557 10.4686 3.18973L8.23519 5.42318M6.61677 13.3309L13.3171 6.63049" stroke="#0696A7" stroke-width="2" stroke-linecap="round" stroke-linejoin="round"/>
</svg>
