<svg width="34" height="33" viewBox="0 0 34 33" fill="none" xmlns="http://www.w3.org/2000/svg">
<path d="M0 19.2897L1.93467 21.9694C7.52914 28.3942 19.9413 29.5412 27.0537 25.6097C32.0439 22.8533 32.7895 18.0763 27.6848 14.8524C21.5153 10.9567 11.0598 11.2071 5.18268 15.698C3.0482 13.9558 4.3055 11.4702 6.09397 10.0166C9.95113 6.88219 17.261 6.54243 21.8832 7.43653C37.4118 10.4356 38.3499 28.1873 22.7531 32.3078C13.6499 34.7116 0.0511689 31.0484 0 19.2897Z" fill="black"/>
<path d="M33.9976 13.7254L32.0631 11.0453C26.7544 5.34027 17.8156 4.00407 10.6723 5.96111C2.87372 8.09699 -1.0463 15.0182 8.07524 19.1188C14.261 21.8985 23.2754 21.5152 28.8155 17.315C30.9303 18.9834 29.6488 21.5817 27.9044 22.9971C24.0428 26.1319 16.7412 26.4717 12.1171 25.5775C-3.41196 22.5806 -4.34994 4.82418 11.2473 0.70571C20.3396 -1.69588 33.9561 1.96271 34 13.7228L33.9976 13.7254Z" fill="black"/>
</svg>
