<svg width="32" height="32" viewBox="0 0 32 32" fill="none" xmlns="http://www.w3.org/2000/svg">
<rect width="32" height="32" rx="16" fill="black" fill-opacity="0.05"/>
<path d="M16 25C20.9706 25 25 20.9706 25 16C25 11.0294 20.9706 7 16 7M16 25C11.0294 25 7 20.9706 7 16C7 11.0294 11.0294 7 16 7M16 25C13.8254 25 12.0625 20.9706 12.0625 16C12.0625 11.0294 13.8254 7 16 7M16 25C18.1746 25 19.9375 20.9706 19.9375 16C19.9375 11.0294 18.1746 7 16 7M8.6875 20.3744C10.3363 19.4302 13.0757 18.8125 16.1764 18.8125C19.4124 18.8125 22.255 19.4854 23.875 20.5M8.6875 11.6256C10.3363 12.5698 13.0757 13.1875 16.1764 13.1875C19.4124 13.1875 22.255 12.5146 23.875 11.5" stroke="#0696A7" stroke-width="2"/>
</svg>
