<svg width="130" height="57" viewBox="0 0 130 57" fill="none" xmlns="http://www.w3.org/2000/svg">
<path d="M74.6 21.475L65 26.3958L55.4 21.475M74.6 26.1792L65 31.0999L55.4 26.1792M65 11.8999L74.6 16.8206L65 21.7414L55.4 16.8206L65 11.8999Z" stroke="black" stroke-width="2" stroke-linecap="round" stroke-linejoin="round"/>
<path d="M50.2754 46.8184H48.0547V45.6523H50.2754C50.6621 45.6523 50.9746 45.5898 51.2129 45.4648C51.4512 45.3398 51.625 45.168 51.7344 44.9492C51.8477 44.7266 51.9043 44.4727 51.9043 44.1875C51.9043 43.918 51.8477 43.666 51.7344 43.4316C51.625 43.1934 51.4512 43.002 51.2129 42.8574C50.9746 42.7129 50.6621 42.6406 50.2754 42.6406H48.5059V50H47.0352V41.4688H50.2754C50.9355 41.4688 51.4961 41.5859 51.957 41.8203C52.4219 42.0508 52.7754 42.3711 53.0176 42.7812C53.2598 43.1875 53.3809 43.6523 53.3809 44.1758C53.3809 44.7266 53.2598 45.1992 53.0176 45.5938C52.7754 45.9883 52.4219 46.291 51.957 46.502C51.4961 46.7129 50.9355 46.8184 50.2754 46.8184ZM58.0625 48.7285V45.7051C58.0625 45.4785 58.0215 45.2832 57.9395 45.1191C57.8574 44.9551 57.7324 44.8281 57.5645 44.7383C57.4004 44.6484 57.1934 44.6035 56.9434 44.6035C56.7129 44.6035 56.5137 44.6426 56.3457 44.7207C56.1777 44.7988 56.0469 44.9043 55.9531 45.0371C55.8594 45.1699 55.8125 45.3203 55.8125 45.4883H54.4062C54.4062 45.2383 54.4668 44.9961 54.5879 44.7617C54.709 44.5273 54.8848 44.3184 55.1152 44.1348C55.3457 43.9512 55.6211 43.8066 55.9414 43.7012C56.2617 43.5957 56.6211 43.543 57.0195 43.543C57.4961 43.543 57.918 43.623 58.2852 43.7832C58.6562 43.9434 58.9473 44.1855 59.1582 44.5098C59.373 44.8301 59.4805 45.2324 59.4805 45.7168V48.5352C59.4805 48.8242 59.5 49.084 59.5391 49.3145C59.582 49.541 59.6426 49.7383 59.7207 49.9062V50H58.2734C58.207 49.8477 58.1543 49.6543 58.1152 49.4199C58.0801 49.1816 58.0625 48.9512 58.0625 48.7285ZM58.2676 46.1445L58.2793 47.0176H57.2656C57.0039 47.0176 56.7734 47.043 56.5742 47.0938C56.375 47.1406 56.209 47.2109 56.0762 47.3047C55.9434 47.3984 55.8438 47.5117 55.7773 47.6445C55.7109 47.7773 55.6777 47.9277 55.6777 48.0957C55.6777 48.2637 55.7168 48.418 55.7949 48.5586C55.873 48.6953 55.9863 48.8027 56.1348 48.8809C56.2871 48.959 56.4707 48.998 56.6855 48.998C56.9746 48.998 57.2266 48.9395 57.4414 48.8223C57.6602 48.7012 57.832 48.5547 57.957 48.3828C58.082 48.207 58.1484 48.041 58.1562 47.8848L58.6133 48.5117C58.5664 48.6719 58.4863 48.8438 58.373 49.0273C58.2598 49.2109 58.1113 49.3867 57.9277 49.5547C57.748 49.7188 57.5312 49.8535 57.2773 49.959C57.0273 50.0645 56.7383 50.1172 56.4102 50.1172C55.9961 50.1172 55.627 50.0352 55.3027 49.8711C54.9785 49.7031 54.7246 49.4785 54.541 49.1973C54.3574 48.9121 54.2656 48.5898 54.2656 48.2305C54.2656 47.8945 54.3281 47.5977 54.4531 47.3398C54.582 47.0781 54.7695 46.8594 55.0156 46.6836C55.2656 46.5078 55.5703 46.375 55.9297 46.2852C56.2891 46.1914 56.6992 46.1445 57.1602 46.1445H58.2676ZM62.375 44.8789V52.4375H60.9629V43.6602H62.2637L62.375 44.8789ZM66.5059 46.7715V46.8945C66.5059 47.3555 66.4512 47.7832 66.3418 48.1777C66.2363 48.5684 66.0781 48.9102 65.8672 49.2031C65.6602 49.4922 65.4043 49.7168 65.0996 49.877C64.7949 50.0371 64.4434 50.1172 64.0449 50.1172C63.6504 50.1172 63.3047 50.0449 63.0078 49.9004C62.7148 49.752 62.4668 49.543 62.2637 49.2734C62.0605 49.0039 61.8965 48.6875 61.7715 48.3242C61.6504 47.957 61.5645 47.5547 61.5137 47.1172V46.6426C61.5645 46.1777 61.6504 45.7559 61.7715 45.377C61.8965 44.998 62.0605 44.6719 62.2637 44.3984C62.4668 44.125 62.7148 43.9141 63.0078 43.7656C63.3008 43.6172 63.6426 43.543 64.0332 43.543C64.4316 43.543 64.7852 43.6211 65.0938 43.7773C65.4023 43.9297 65.6621 44.1484 65.873 44.4336C66.084 44.7148 66.2422 45.0547 66.3477 45.4531C66.4531 45.8477 66.5059 46.2871 66.5059 46.7715ZM65.0938 46.8945V46.7715C65.0938 46.4785 65.0664 46.207 65.0117 45.957C64.957 45.7031 64.8711 45.4805 64.7539 45.2891C64.6367 45.0977 64.4863 44.9492 64.3027 44.8438C64.123 44.7344 63.9062 44.6797 63.6523 44.6797C63.4023 44.6797 63.1875 44.7227 63.0078 44.8086C62.8281 44.8906 62.6777 45.0059 62.5566 45.1543C62.4355 45.3027 62.3418 45.4766 62.2754 45.6758C62.209 45.8711 62.1621 46.084 62.1348 46.3145V47.4512C62.1816 47.7324 62.2617 47.9902 62.375 48.2246C62.4883 48.459 62.6484 48.6465 62.8555 48.7871C63.0664 48.9238 63.3359 48.9922 63.6641 48.9922C63.918 48.9922 64.1348 48.9375 64.3145 48.8281C64.4941 48.7188 64.6406 48.5684 64.7539 48.377C64.8711 48.1816 64.957 47.957 65.0117 47.7031C65.0664 47.4492 65.0938 47.1797 65.0938 46.8945ZM70.502 50.1172C70.0332 50.1172 69.6094 50.041 69.2305 49.8887C68.8555 49.7324 68.5352 49.5156 68.2695 49.2383C68.0078 48.9609 67.8066 48.6348 67.666 48.2598C67.5254 47.8848 67.4551 47.4805 67.4551 47.0469V46.8125C67.4551 46.3164 67.5273 45.8672 67.6719 45.4648C67.8164 45.0625 68.0176 44.7188 68.2754 44.4336C68.5332 44.1445 68.8379 43.9238 69.1895 43.7715C69.541 43.6191 69.9219 43.543 70.332 43.543C70.7852 43.543 71.1816 43.6191 71.5215 43.7715C71.8613 43.9238 72.1426 44.1387 72.3652 44.416C72.5918 44.6895 72.7598 45.0156 72.8691 45.3945C72.9824 45.7734 73.0391 46.1914 73.0391 46.6484V47.252H68.1406V46.2383H71.6445V46.127C71.6367 45.873 71.5859 45.6348 71.4922 45.4121C71.4023 45.1895 71.2637 45.0098 71.0762 44.873C70.8887 44.7363 70.6387 44.668 70.3262 44.668C70.0918 44.668 69.8828 44.7188 69.6992 44.8203C69.5195 44.918 69.3691 45.0605 69.248 45.248C69.127 45.4355 69.0332 45.6621 68.9668 45.9277C68.9043 46.1895 68.873 46.4844 68.873 46.8125V47.0469C68.873 47.3242 68.9102 47.582 68.9844 47.8203C69.0625 48.0547 69.1758 48.2598 69.3242 48.4355C69.4727 48.6113 69.6523 48.75 69.8633 48.8516C70.0742 48.9492 70.3145 48.998 70.584 48.998C70.9238 48.998 71.2266 48.9297 71.4922 48.793C71.7578 48.6562 71.9883 48.4629 72.1836 48.2129L72.9277 48.9336C72.791 49.1328 72.6133 49.3242 72.3945 49.5078C72.1758 49.6875 71.9082 49.834 71.5918 49.9473C71.2793 50.0605 70.916 50.1172 70.502 50.1172ZM75.5586 44.8672V50H74.1465V43.6602H75.4941L75.5586 44.8672ZM77.498 43.6191L77.4863 44.9316C77.4004 44.916 77.3066 44.9043 77.2051 44.8965C77.1074 44.8887 77.0098 44.8848 76.9121 44.8848C76.6699 44.8848 76.457 44.9199 76.2734 44.9902C76.0898 45.0566 75.9355 45.1543 75.8105 45.2832C75.6895 45.4082 75.5957 45.5605 75.5293 45.7402C75.4629 45.9199 75.4238 46.1211 75.4121 46.3438L75.0898 46.3672C75.0898 45.9688 75.1289 45.5996 75.207 45.2598C75.2852 44.9199 75.4023 44.6211 75.5586 44.3633C75.7188 44.1055 75.918 43.9043 76.1562 43.7598C76.3984 43.6152 76.6777 43.543 76.9941 43.543C77.0801 43.543 77.1719 43.5508 77.2695 43.5664C77.3711 43.582 77.4473 43.5996 77.498 43.6191ZM81.9395 48.2832C81.9395 48.1426 81.9043 48.0156 81.834 47.9023C81.7637 47.7852 81.6289 47.6797 81.4297 47.5859C81.2344 47.4922 80.9453 47.4062 80.5625 47.3281C80.2266 47.2539 79.918 47.166 79.6367 47.0645C79.3594 46.959 79.1211 46.832 78.9219 46.6836C78.7227 46.5352 78.5684 46.3594 78.459 46.1562C78.3496 45.9531 78.2949 45.7188 78.2949 45.4531C78.2949 45.1953 78.3516 44.9512 78.4648 44.7207C78.5781 44.4902 78.7402 44.2871 78.9512 44.1113C79.1621 43.9355 79.418 43.7969 79.7188 43.6953C80.0234 43.5938 80.3633 43.543 80.7383 43.543C81.2695 43.543 81.7246 43.6328 82.1035 43.8125C82.4863 43.9883 82.7793 44.2285 82.9824 44.5332C83.1855 44.834 83.2871 45.1738 83.2871 45.5527H81.875C81.875 45.3848 81.832 45.2285 81.7461 45.084C81.6641 44.9355 81.5391 44.8164 81.3711 44.7266C81.2031 44.6328 80.9922 44.5859 80.7383 44.5859C80.4961 44.5859 80.2949 44.625 80.1348 44.7031C79.9785 44.7773 79.8613 44.875 79.7832 44.9961C79.709 45.1172 79.6719 45.25 79.6719 45.3945C79.6719 45.5 79.6914 45.5957 79.7305 45.6816C79.7734 45.7637 79.8438 45.8398 79.9414 45.9102C80.0391 45.9766 80.1719 46.0391 80.3398 46.0977C80.5117 46.1562 80.7266 46.2129 80.9844 46.2676C81.4688 46.3691 81.8848 46.5 82.2324 46.6602C82.584 46.8164 82.8535 47.0195 83.041 47.2695C83.2285 47.5156 83.3223 47.8281 83.3223 48.207C83.3223 48.4883 83.2617 48.7461 83.1406 48.9805C83.0234 49.2109 82.8516 49.4121 82.625 49.584C82.3984 49.752 82.127 49.8828 81.8105 49.9766C81.498 50.0703 81.1465 50.1172 80.7559 50.1172C80.1816 50.1172 79.6953 50.0156 79.2969 49.8125C78.8984 49.6055 78.5957 49.3418 78.3887 49.0215C78.1855 48.6973 78.084 48.3613 78.084 48.0137H79.4492C79.4648 48.2754 79.5371 48.4844 79.666 48.6406C79.7988 48.793 79.9629 48.9043 80.1582 48.9746C80.3574 49.041 80.5625 49.0742 80.7734 49.0742C81.0273 49.0742 81.2402 49.041 81.4121 48.9746C81.584 48.9043 81.7148 48.8105 81.8047 48.6934C81.8945 48.5723 81.9395 48.4355 81.9395 48.2832Z" fill="black"/>
</svg>
