<svg width="32" height="32" viewBox="0 0 32 32" fill="none" xmlns="http://www.w3.org/2000/svg">
<rect width="32" height="32" rx="16" fill="#0696A7"/>
<path d="M17.6634 25.3663L23.3379 22.113C23.9437 21.7658 24.246 21.5921 24.4662 21.3492C24.6611 21.1342 24.8085 20.881 24.8985 20.606C25 20.2958 25 19.9492 25 19.2579V12.7419C25 12.0506 25 11.704 24.8985 11.3939C24.8085 11.1188 24.6611 10.8654 24.4662 10.6505C24.2469 10.4086 23.9453 10.2357 23.3448 9.89137L17.6624 6.63364C17.0566 6.28636 16.7543 6.11307 16.4323 6.0451C16.1474 5.98497 15.8529 5.98497 15.568 6.0451C15.246 6.11307 14.9427 6.28636 14.3369 6.63364L8.66132 9.88748C8.05627 10.2344 7.75398 10.4077 7.53383 10.6505C7.33893 10.8654 7.19174 11.1188 7.10173 11.3939C7 11.7048 7 12.0522 7 12.7468V19.2533C7 19.9478 7 20.2951 7.10173 20.606C7.19174 20.881 7.33893 21.1342 7.53383 21.3492C7.75411 21.5921 8.05662 21.7658 8.66238 22.113L14.3369 25.3663C14.9427 25.7136 15.246 25.8869 15.568 25.9549C15.8529 26.015 16.1474 26.015 16.4323 25.9549C16.7543 25.8869 17.0576 25.7136 17.6634 25.3663Z" stroke="white" stroke-width="2" stroke-linecap="round" stroke-linejoin="round"/>
<path d="M12.8823 15.9999C12.8823 17.7097 14.2781 19.0958 16 19.0958C17.7219 19.0958 19.1177 17.7097 19.1177 15.9999C19.1177 14.2901 17.7219 12.904 16 12.904C14.2781 12.904 12.8823 14.2901 12.8823 15.9999Z" stroke="white" stroke-width="2" stroke-linecap="round" stroke-linejoin="round"/>
</svg>
